# xmcd CD database file
#
# Track frame offsets:
#	150
#	40570
#	78448
#	119887
#	172152
#	206081
#	249274
#	267119
#
# Disc length: 4159 seconds
#
# Revision: 0
# Processed by: cddbd v1.5.2PL0 Copyright (c) Steve Scherf et al.
# Submitted via: CDex 1.82
#
DISCID=6c103d08
DTITLE=Mark Sweetman Quartet - All Paths Lead To One
DYEAR=2001
DGENRE=Jazz
TTITLE0=All Paths Lead to One
TTITLE1=Can a Brother Get A Ride
TTITLE2=Awakening
TTITLE3=This Is That
TTITLE4=Cole
TTITLE5=Nothing Seems As It Is
TTITLE6=Inner Meditation
TTITLE7=Exaltation
EXTD=YEAR: 2001
EXTT0=
EXTT1=
EXTT2=
EXTT3=
EXTT4=
EXTT5=
EXTT6=
EXTT7=
PLAYORDER=
